<?xml version="1.0" ?><svg id="Слой_1" style="enable-background:new 0 0 128 128;" version="1.1" viewBox="0 0 128 128" xml:space="preserve" xmlns="http://www.w3.org/2000/svg" xmlns:xlink="http://www.w3.org/1999/xlink"><style type="text/css">
	.st0{fill:#5385CD;}
</style><g id="XMLID_480_"><g id="XMLID_274_"><path class="st0" d="M66.5,40.5L64,37.4c6.7-5.5,14.7-8.4,23-8.4c7.7,0,11,3.1,12.4,5.7l-3.5,1.9    C94.6,34.3,91.5,33,87,33C79.5,33,72.6,35.5,66.5,40.5z" id="XMLID_8_"/></g><g id="XMLID_100_"><path class="st0" d="M35.2,104.4l-4-0.3c1.7-21.4,5.8-39,12.3-52.5C53.2,31.8,67.8,22,87,22c21.4,0,22,15.3,22,17    c0,3.5-1.1,6.1-3.2,8.1c-4.5,4.3-12.6,4-19.7,3.7C81.4,50.7,76,50.4,74.4,52c-2.9,2.6-2.2,6.6-1.5,10.7c0.6,3.9,1.3,7.9-1.2,10.8    c-2.1,2.4-5.8,3.4-11.7,3.2c-20.1-0.5-21.9,7.3-22.9,11.5l0,0C36.2,93.7,35.7,99.1,35.2,104.4z M87,26c-28.4,0-41.8,24-47.9,51.3    c3.9-3,10.2-4.9,20.9-4.6c4.5,0.1,7.4-0.5,8.5-1.9c1.3-1.5,0.8-4.4,0.3-7.5c-0.8-4.6-1.7-10.2,2.8-14.3c2.9-2.6,8.3-2.4,14.6-2.2    c6.4,0.2,13.6,0.5,16.8-2.6c1.3-1.3,1.9-2.8,1.9-5.3C105,36.8,104.1,26,87,26z" id="XMLID_4_"/></g><g id="XMLID_98_"><path class="st0" d="M92,101H67v-4h25c1.9,0,3-0.5,3-3.3V63h4v30.8C99,98.4,96.4,101,92,101z" id="XMLID_3_"/></g><g id="XMLID_152_"><path class="st0" d="M23,61h-4V29.8c0-5.6,3.8-6.8,7-6.8h25v4H26c-2.7,0-3,0.9-3,2.8V61z" id="XMLID_2_"/></g></g></svg>